<?xml version="1.0" standalone="no"?>
<!DOCTYPE svg PUBLIC "-//W3C//DTD SVG 20010904//EN"
 "http://www.w3.org/TR/2001/REC-SVG-20010904/DTD/svg10.dtd">
<svg version="1.0" xmlns="http://www.w3.org/2000/svg"
 width="512.000000pt" height="512.000000pt" viewBox="0 0 512.000000 512.000000"
 preserveAspectRatio="xMidYMid meet">

<g transform="translate(0.000000,512.000000) scale(0.100000,-0.100000)"
fill="#000000" stroke="none">
<path d="M2335 4799 c-244 -23 -527 -105 -760 -218 -456 -223 -812 -579 -1036
-1036 -545 -1113 -80 -2461 1036 -3006 1116 -544 2462 -81 3005 1036 38 77 83
181 100 230 289 829 81 1738 -538 2353 -473 470 -1134 704 -1807 641z m873
-1196 l2 -203 -167 0 c-193 0 -222 -8 -260 -76 -21 -37 -23 -51 -23 -226 l0
-188 223 0 222 0 -25 -222 -25 -223 -202 -3 -203 -2 0 -575 0 -575 -225 0
-225 0 -2 572 -3 573 -193 3 -192 2 2 228 3 227 193 3 192 2 0 219 c0 120 5
243 10 272 30 161 182 326 347 379 51 17 87 19 303 17 l245 -2 3 -202z"/>
</g>
</svg>
