<?xml version="1.0" standalone="no"?>
<!DOCTYPE svg PUBLIC "-//W3C//DTD SVG 20010904//EN"
 "http://www.w3.org/TR/2001/REC-SVG-20010904/DTD/svg10.dtd">
<svg version="1.0" xmlns="http://www.w3.org/2000/svg"
 width="512.000000pt" height="512.000000pt" viewBox="0 0 512.000000 512.000000"
 preserveAspectRatio="xMidYMid meet">

<g transform="translate(0.000000,512.000000) scale(0.100000,-0.100000)"
fill="#000000" stroke="none">
<path d="M2315 5109 c-800 -83 -1501 -518 -1927 -1196 -604 -961 -490 -2237
274 -3068 425 -462 951 -737 1583 -827 119 -17 512 -16 635 1 622 86 1148 360
1572 820 349 378 572 862 650 1406 17 118 17 512 0 630 -59 416 -191 769 -410
1099 -92 140 -185 254 -315 385 -399 404 -893 653 -1462 737 -123 18 -478 26
-600 13z m-274 -1206 c14 -21 79 -117 145 -213 347 -506 516 -750 522 -754 8
-4 45 38 554 632 l320 372 119 0 c65 0 119 -3 119 -6 0 -3 -42 -54 -92 -113
-89 -102 -305 -353 -702 -816 -100 -115 -186 -216 -193 -223 -11 -11 -10 -19
5 -40 11 -15 93 -135 184 -267 90 -132 327 -477 526 -767 199 -289 362 -529
362 -532 0 -3 -181 -6 -403 -6 l-403 0 -139 203 c-76 111 -189 274 -249 362
-61 88 -162 237 -227 330 -64 94 -118 170 -121 170 -3 0 -175 -198 -383 -440
-208 -242 -414 -482 -458 -532 l-80 -93 -118 0 c-66 0 -119 3 -119 6 0 3 66
83 148 177 81 94 317 369 524 611 l378 439 -37 51 c-20 28 -89 128 -153 221
-64 94 -150 218 -191 278 -41 59 -115 167 -165 240 -103 151 -292 426 -414
602 -45 66 -85 126 -87 133 -4 9 80 12 399 12 l404 0 25 -37z"/>
<path d="M1540 3754 c0 -4 47 -72 104 -153 85 -120 239 -341 511 -731 17 -25
110 -157 207 -295 148 -211 394 -564 594 -850 27 -39 96 -139 154 -222 l105
-152 183 -1 184 0 -29 38 c-16 20 -76 105 -133 187 -57 83 -118 170 -135 195
-101 145 -408 583 -570 815 -104 149 -205 293 -224 320 -61 87 -479 686 -539
772 l-57 82 -177 1 c-98 0 -178 -3 -178 -6z"/>
</g>
</svg>
