<?xml version="1.0" standalone="no"?>
<!DOCTYPE svg PUBLIC "-//W3C//DTD SVG 20010904//EN"
 "http://www.w3.org/TR/2001/REC-SVG-20010904/DTD/svg10.dtd">
<svg version="1.0" xmlns="http://www.w3.org/2000/svg"
 width="512.000000pt" height="512.000000pt" viewBox="0 0 512.000000 512.000000"
 preserveAspectRatio="xMidYMid meet">

<g transform="translate(0.000000,512.000000) scale(0.100000,-0.100000)"
fill="#000000" stroke="none">
<path d="M2335 4799 c-244 -23 -527 -105 -760 -218 -456 -223 -812 -579 -1036
-1036 -545 -1113 -80 -2461 1036 -3006 1116 -544 2462 -81 3005 1036 38 77 83
181 100 230 289 829 81 1738 -538 2353 -473 470 -1134 704 -1807 641z m1128
-1384 c167 -43 288 -164 332 -330 22 -86 22 -963 0 -1048 -43 -167 -165 -289
-330 -333 -40 -11 -223 -14 -906 -14 -758 0 -862 2 -910 16 -169 50 -281 165
-324 331 -22 84 -22 962 0 1046 43 167 162 287 328 332 80 21 1727 22 1810 0z"/>
<path d="M2240 2555 c0 -261 3 -475 8 -475 17 1 757 466 755 475 -2 9 -748
475 -759 475 -2 0 -4 -214 -4 -475z"/>
</g>
</svg>
